<?xml version="1.0" encoding="UTF-8"?>
<svg width="169px" height="36px" viewBox="0 0 169 36" version="1.1" xmlns="http://www.w3.org/2000/svg" xmlns:xlink="http://www.w3.org/1999/xlink">
    <title>Top Element</title>
    <defs>
        <radialGradient cx="50%" cy="19.0648802%" fx="50%" fy="19.0648802%" r="177.57439%" gradientTransform="translate(0.5, 0.1906), scale(0.2085, 1), rotate(90), translate(-0.5, -0.1906)" id="radialGradient-1">
            <stop stop-color="#CBB88F" offset="0%"></stop>
            <stop stop-color="#84684C" offset="100%"></stop>
        </radialGradient>
    </defs>
    <g id="Symbols" stroke="none" stroke-width="1" fill="none" fill-rule="evenodd">
        <g id="Element/Races/Frame/With-Photo-01" transform="translate(-208, 0)" fill="url(#radialGradient-1)">
            <g id="Top-Element" transform="translate(208.052, 0)">
                <path d="M83.7951351,21 C83.5183034,15.6117932 81.8200435,9.57545628 80.5287431,7.03732887 L76.221,7.0536707 C63.404,7.0926707 50.577,10.3046707 39.084,15.9296707 C32.422,19.1196707 26.657,23.7456707 20.713,28.0876707 C14.843,32.4006707 7.523,36.4466707 0,34.6686707 C0,34.6686707 0.00588888889,34.636004 0.0137407407,34.5924485 L0.0392592593,34.4508929 C0.0471111111,34.4073374 0.053,34.3746707 0.053,34.3746707 C7.542,35.4236707 14.287,31.5356707 20.133,27.2786707 C25.326,23.4966707 30.43,19.3266707 36.146,16.2846707 C46.729,10.4946707 58.63,7.1036707 70.648,6.1576707 C73.417122,5.91207042 77.0695138,6.02262734 80.1310718,6.03845329 C81.4497961,4.65452915 83.496981,1.28924085 84.0956716,0.28652312 L84.1880785,0.131211653 C84.238396,0.0463159141 84.2654932,0 84.2654932,0 C84.2654932,0 84.2802771,0.0279428816 84.308133,0.0801818211 L84.3807669,0.215973903 L84.4852162,0.410072231 C84.8034633,0.99964655 85.4286137,2.14199957 86.100975,3.28389461 L86.3548164,3.71100324 C86.9023021,4.6231779 87.4593458,5.49024188 87.8904765,6.02359366 C91.0354114,6.02933455 94.8067221,5.90720887 97.6851,6.17038984 C109.6891,7.16838984 121.5921,10.4973898 132.1771,16.2813898 C139.5551,20.1643898 145.7501,25.9143898 152.7771,30.2993898 C157.3791,33.2243898 162.7541,35.1813898 168.2871,34.3753898 C168.2861,34.3753898 168.3301,34.6173898 168.3301,34.6173898 C160.8081,36.3193898 153.5111,32.4073898 147.6101,28.0803898 C147.092796,27.7032594 146.577178,27.3235354 146.062478,26.9424263 L144.520364,25.7961525 C139.640866,22.1607811 134.774926,18.5094768 129.2641,15.8783898 C117.7741,10.2363898 104.9421,6.98038984 92.1141,7.00938984 L87.480905,7.00836509 C86.2313581,9.39324847 83.7951351,15.7167391 83.7951351,21 Z" id="Combined-Shape"></path>
            </g>
        </g>
    </g>
</svg>